<mxfile host="app.diagrams.net" agent="Mozilla/5.0 (Windows NT 10.0; Win64; x64) AppleWebKit/537.36 (KHTML, like Gecko) Chrome/129.0.0.0 Safari/537.36" version="24.8.6">
  <diagram id="C5RBs43oDa-KdzZeNtuy" name="Page-1">
    <mxGraphModel dx="836" dy="443" grid="1" gridSize="10" guides="1" tooltips="1" connect="1" arrows="1" fold="1" page="1" pageScale="1" pageWidth="827" pageHeight="1169" math="0" shadow="0">
      <root>
        <mxCell id="WIyWlLk6GJQsqaUBKTNV-0" />
        <mxCell id="WIyWlLk6GJQsqaUBKTNV-1" parent="WIyWlLk6GJQsqaUBKTNV-0" />
        <mxCell id="jxAc-yvaSfZDM8Wcgz56-2" value="" style="edgeStyle=orthogonalEdgeStyle;rounded=0;orthogonalLoop=1;jettySize=auto;html=1;" edge="1" parent="WIyWlLk6GJQsqaUBKTNV-1" source="jxAc-yvaSfZDM8Wcgz56-0" target="jxAc-yvaSfZDM8Wcgz56-1">
          <mxGeometry relative="1" as="geometry" />
        </mxCell>
        <mxCell id="jxAc-yvaSfZDM8Wcgz56-0" value="bắt đầu" style="ellipse;whiteSpace=wrap;html=1;" vertex="1" parent="WIyWlLk6GJQsqaUBKTNV-1">
          <mxGeometry x="40" y="80" width="120" height="80" as="geometry" />
        </mxCell>
        <mxCell id="jxAc-yvaSfZDM8Wcgz56-4" value="" style="edgeStyle=orthogonalEdgeStyle;rounded=0;orthogonalLoop=1;jettySize=auto;html=1;" edge="1" parent="WIyWlLk6GJQsqaUBKTNV-1" source="jxAc-yvaSfZDM8Wcgz56-1" target="jxAc-yvaSfZDM8Wcgz56-3">
          <mxGeometry relative="1" as="geometry" />
        </mxCell>
        <mxCell id="jxAc-yvaSfZDM8Wcgz56-1" value="nhập a,b" style="shape=parallelogram;perimeter=parallelogramPerimeter;whiteSpace=wrap;html=1;fixedSize=1;" vertex="1" parent="WIyWlLk6GJQsqaUBKTNV-1">
          <mxGeometry x="40" y="250" width="120" height="60" as="geometry" />
        </mxCell>
        <mxCell id="jxAc-yvaSfZDM8Wcgz56-6" value="" style="edgeStyle=orthogonalEdgeStyle;rounded=0;orthogonalLoop=1;jettySize=auto;html=1;" edge="1" parent="WIyWlLk6GJQsqaUBKTNV-1" source="jxAc-yvaSfZDM8Wcgz56-3" target="jxAc-yvaSfZDM8Wcgz56-5">
          <mxGeometry relative="1" as="geometry">
            <Array as="points">
              <mxPoint x="100" y="470" />
              <mxPoint x="100" y="470" />
            </Array>
          </mxGeometry>
        </mxCell>
        <mxCell id="jxAc-yvaSfZDM8Wcgz56-3" value="nhập phép toán&lt;div&gt;&amp;nbsp;+,-,*,/&lt;/div&gt;" style="shape=parallelogram;perimeter=parallelogramPerimeter;whiteSpace=wrap;html=1;fixedSize=1;" vertex="1" parent="WIyWlLk6GJQsqaUBKTNV-1">
          <mxGeometry x="40" y="390" width="120" height="60" as="geometry" />
        </mxCell>
        <mxCell id="jxAc-yvaSfZDM8Wcgz56-10" value="" style="edgeStyle=orthogonalEdgeStyle;rounded=0;orthogonalLoop=1;jettySize=auto;html=1;" edge="1" parent="WIyWlLk6GJQsqaUBKTNV-1" source="jxAc-yvaSfZDM8Wcgz56-5" target="jxAc-yvaSfZDM8Wcgz56-9">
          <mxGeometry relative="1" as="geometry" />
        </mxCell>
        <mxCell id="jxAc-yvaSfZDM8Wcgz56-16" value="" style="edgeStyle=orthogonalEdgeStyle;rounded=0;orthogonalLoop=1;jettySize=auto;html=1;" edge="1" parent="WIyWlLk6GJQsqaUBKTNV-1" source="jxAc-yvaSfZDM8Wcgz56-5" target="jxAc-yvaSfZDM8Wcgz56-15">
          <mxGeometry relative="1" as="geometry" />
        </mxCell>
        <mxCell id="jxAc-yvaSfZDM8Wcgz56-5" value="+" style="rhombus;whiteSpace=wrap;html=1;" vertex="1" parent="WIyWlLk6GJQsqaUBKTNV-1">
          <mxGeometry x="60" y="520" width="80" height="80" as="geometry" />
        </mxCell>
        <mxCell id="jxAc-yvaSfZDM8Wcgz56-12" value="" style="edgeStyle=orthogonalEdgeStyle;rounded=0;orthogonalLoop=1;jettySize=auto;html=1;" edge="1" parent="WIyWlLk6GJQsqaUBKTNV-1" source="jxAc-yvaSfZDM8Wcgz56-9" target="jxAc-yvaSfZDM8Wcgz56-11">
          <mxGeometry relative="1" as="geometry" />
        </mxCell>
        <mxCell id="jxAc-yvaSfZDM8Wcgz56-18" value="" style="edgeStyle=orthogonalEdgeStyle;rounded=0;orthogonalLoop=1;jettySize=auto;html=1;" edge="1" parent="WIyWlLk6GJQsqaUBKTNV-1" source="jxAc-yvaSfZDM8Wcgz56-9" target="jxAc-yvaSfZDM8Wcgz56-17">
          <mxGeometry relative="1" as="geometry" />
        </mxCell>
        <mxCell id="jxAc-yvaSfZDM8Wcgz56-9" value="-" style="rhombus;whiteSpace=wrap;html=1;" vertex="1" parent="WIyWlLk6GJQsqaUBKTNV-1">
          <mxGeometry x="220" y="520" width="80" height="80" as="geometry" />
        </mxCell>
        <mxCell id="jxAc-yvaSfZDM8Wcgz56-14" value="" style="edgeStyle=orthogonalEdgeStyle;rounded=0;orthogonalLoop=1;jettySize=auto;html=1;" edge="1" parent="WIyWlLk6GJQsqaUBKTNV-1" source="jxAc-yvaSfZDM8Wcgz56-11">
          <mxGeometry relative="1" as="geometry">
            <mxPoint x="540" y="560" as="targetPoint" />
          </mxGeometry>
        </mxCell>
        <mxCell id="jxAc-yvaSfZDM8Wcgz56-20" value="" style="edgeStyle=orthogonalEdgeStyle;rounded=0;orthogonalLoop=1;jettySize=auto;html=1;" edge="1" parent="WIyWlLk6GJQsqaUBKTNV-1" source="jxAc-yvaSfZDM8Wcgz56-11" target="jxAc-yvaSfZDM8Wcgz56-19">
          <mxGeometry relative="1" as="geometry" />
        </mxCell>
        <mxCell id="jxAc-yvaSfZDM8Wcgz56-11" value="*" style="rhombus;whiteSpace=wrap;html=1;" vertex="1" parent="WIyWlLk6GJQsqaUBKTNV-1">
          <mxGeometry x="380" y="520" width="80" height="80" as="geometry" />
        </mxCell>
        <mxCell id="jxAc-yvaSfZDM8Wcgz56-30" value="" style="edgeStyle=orthogonalEdgeStyle;rounded=0;orthogonalLoop=1;jettySize=auto;html=1;" edge="1" parent="WIyWlLk6GJQsqaUBKTNV-1" source="jxAc-yvaSfZDM8Wcgz56-15" target="jxAc-yvaSfZDM8Wcgz56-29">
          <mxGeometry relative="1" as="geometry" />
        </mxCell>
        <mxCell id="jxAc-yvaSfZDM8Wcgz56-15" value="tính c= a+b" style="whiteSpace=wrap;html=1;" vertex="1" parent="WIyWlLk6GJQsqaUBKTNV-1">
          <mxGeometry x="40" y="690" width="120" height="60" as="geometry" />
        </mxCell>
        <mxCell id="jxAc-yvaSfZDM8Wcgz56-32" style="edgeStyle=orthogonalEdgeStyle;rounded=0;orthogonalLoop=1;jettySize=auto;html=1;" edge="1" parent="WIyWlLk6GJQsqaUBKTNV-1" source="jxAc-yvaSfZDM8Wcgz56-17">
          <mxGeometry relative="1" as="geometry">
            <mxPoint x="260" y="880" as="targetPoint" />
          </mxGeometry>
        </mxCell>
        <mxCell id="jxAc-yvaSfZDM8Wcgz56-17" value="tính c= a-b" style="whiteSpace=wrap;html=1;" vertex="1" parent="WIyWlLk6GJQsqaUBKTNV-1">
          <mxGeometry x="200" y="690" width="120" height="60" as="geometry" />
        </mxCell>
        <mxCell id="jxAc-yvaSfZDM8Wcgz56-33" style="edgeStyle=orthogonalEdgeStyle;rounded=0;orthogonalLoop=1;jettySize=auto;html=1;" edge="1" parent="WIyWlLk6GJQsqaUBKTNV-1" source="jxAc-yvaSfZDM8Wcgz56-19">
          <mxGeometry relative="1" as="geometry">
            <mxPoint x="420" y="880" as="targetPoint" />
          </mxGeometry>
        </mxCell>
        <mxCell id="jxAc-yvaSfZDM8Wcgz56-19" value="tính c= a*b" style="whiteSpace=wrap;html=1;" vertex="1" parent="WIyWlLk6GJQsqaUBKTNV-1">
          <mxGeometry x="360" y="690" width="120" height="60" as="geometry" />
        </mxCell>
        <mxCell id="jxAc-yvaSfZDM8Wcgz56-26" value="" style="edgeStyle=orthogonalEdgeStyle;rounded=0;orthogonalLoop=1;jettySize=auto;html=1;" edge="1" parent="WIyWlLk6GJQsqaUBKTNV-1" source="jxAc-yvaSfZDM8Wcgz56-23">
          <mxGeometry relative="1" as="geometry">
            <mxPoint x="647" y="560" as="targetPoint" />
          </mxGeometry>
        </mxCell>
        <mxCell id="jxAc-yvaSfZDM8Wcgz56-28" value="" style="edgeStyle=orthogonalEdgeStyle;rounded=0;orthogonalLoop=1;jettySize=auto;html=1;" edge="1" parent="WIyWlLk6GJQsqaUBKTNV-1" source="jxAc-yvaSfZDM8Wcgz56-23" target="jxAc-yvaSfZDM8Wcgz56-27">
          <mxGeometry relative="1" as="geometry" />
        </mxCell>
        <mxCell id="jxAc-yvaSfZDM8Wcgz56-23" value="b khác 0" style="rhombus;whiteSpace=wrap;html=1;" vertex="1" parent="WIyWlLk6GJQsqaUBKTNV-1">
          <mxGeometry x="540" y="520" width="80" height="80" as="geometry" />
        </mxCell>
        <mxCell id="jxAc-yvaSfZDM8Wcgz56-25" value="không thể thực hiện phép tính" style="shape=parallelogram;perimeter=parallelogramPerimeter;whiteSpace=wrap;html=1;fixedSize=1;" vertex="1" parent="WIyWlLk6GJQsqaUBKTNV-1">
          <mxGeometry x="640" y="530" width="190" height="60" as="geometry" />
        </mxCell>
        <mxCell id="jxAc-yvaSfZDM8Wcgz56-27" value="tính c= a/b" style="whiteSpace=wrap;html=1;" vertex="1" parent="WIyWlLk6GJQsqaUBKTNV-1">
          <mxGeometry x="520" y="690" width="120" height="60" as="geometry" />
        </mxCell>
        <mxCell id="jxAc-yvaSfZDM8Wcgz56-29" value="kết thúc" style="ellipse;whiteSpace=wrap;html=1;" vertex="1" parent="WIyWlLk6GJQsqaUBKTNV-1">
          <mxGeometry x="40" y="840" width="120" height="70" as="geometry" />
        </mxCell>
        <mxCell id="jxAc-yvaSfZDM8Wcgz56-34" value="sai" style="text;html=1;align=center;verticalAlign=middle;resizable=0;points=[];autosize=1;strokeColor=none;fillColor=none;" vertex="1" parent="WIyWlLk6GJQsqaUBKTNV-1">
          <mxGeometry x="140" y="528" width="40" height="30" as="geometry" />
        </mxCell>
        <mxCell id="jxAc-yvaSfZDM8Wcgz56-36" value="sai" style="text;html=1;align=center;verticalAlign=middle;resizable=0;points=[];autosize=1;strokeColor=none;fillColor=none;" vertex="1" parent="WIyWlLk6GJQsqaUBKTNV-1">
          <mxGeometry x="300" y="528" width="40" height="30" as="geometry" />
        </mxCell>
        <mxCell id="jxAc-yvaSfZDM8Wcgz56-37" value="sai" style="text;html=1;align=center;verticalAlign=middle;resizable=0;points=[];autosize=1;strokeColor=none;fillColor=none;" vertex="1" parent="WIyWlLk6GJQsqaUBKTNV-1">
          <mxGeometry x="460" y="528" width="40" height="30" as="geometry" />
        </mxCell>
        <mxCell id="jxAc-yvaSfZDM8Wcgz56-38" value="sai" style="text;html=1;align=center;verticalAlign=middle;resizable=0;points=[];autosize=1;strokeColor=none;fillColor=none;" vertex="1" parent="WIyWlLk6GJQsqaUBKTNV-1">
          <mxGeometry x="610" y="530" width="40" height="30" as="geometry" />
        </mxCell>
        <mxCell id="jxAc-yvaSfZDM8Wcgz56-39" value="đúng" style="text;html=1;align=center;verticalAlign=middle;resizable=0;points=[];autosize=1;strokeColor=none;fillColor=none;" vertex="1" parent="WIyWlLk6GJQsqaUBKTNV-1">
          <mxGeometry x="95" y="598" width="50" height="30" as="geometry" />
        </mxCell>
        <mxCell id="jxAc-yvaSfZDM8Wcgz56-40" value="đúng" style="text;html=1;align=center;verticalAlign=middle;resizable=0;points=[];autosize=1;strokeColor=none;fillColor=none;" vertex="1" parent="WIyWlLk6GJQsqaUBKTNV-1">
          <mxGeometry x="260" y="598" width="50" height="30" as="geometry" />
        </mxCell>
        <mxCell id="jxAc-yvaSfZDM8Wcgz56-41" value="đúng" style="text;html=1;align=center;verticalAlign=middle;resizable=0;points=[];autosize=1;strokeColor=none;fillColor=none;" vertex="1" parent="WIyWlLk6GJQsqaUBKTNV-1">
          <mxGeometry x="420" y="600" width="50" height="30" as="geometry" />
        </mxCell>
        <mxCell id="jxAc-yvaSfZDM8Wcgz56-42" value="đúng" style="text;html=1;align=center;verticalAlign=middle;resizable=0;points=[];autosize=1;strokeColor=none;fillColor=none;" vertex="1" parent="WIyWlLk6GJQsqaUBKTNV-1">
          <mxGeometry x="580" y="598" width="50" height="30" as="geometry" />
        </mxCell>
        <mxCell id="jxAc-yvaSfZDM8Wcgz56-44" style="edgeStyle=orthogonalEdgeStyle;rounded=0;orthogonalLoop=1;jettySize=auto;html=1;exitX=0.5;exitY=1;exitDx=0;exitDy=0;entryX=1;entryY=0.614;entryDx=0;entryDy=0;entryPerimeter=0;" edge="1" parent="WIyWlLk6GJQsqaUBKTNV-1">
          <mxGeometry relative="1" as="geometry">
            <mxPoint x="580" y="750" as="sourcePoint" />
            <mxPoint x="160" y="882.98" as="targetPoint" />
            <Array as="points">
              <mxPoint x="580" y="883" />
            </Array>
          </mxGeometry>
        </mxCell>
      </root>
    </mxGraphModel>
  </diagram>
</mxfile>
